<svg width="16" height="16" viewBox="0 0 16 16" fill="none" xmlns="http://www.w3.org/2000/svg">
<g clip-path="url(#clip0_99_24)">
<path d="M8.00734 -0.102955C7.88814 -0.103077 7.77008 -0.0796876 7.65992 -0.0341261C7.54976 0.011436 7.44968 0.0782752 7.36538 0.162567C7.28109 0.246859 7.21425 0.346947 7.16869 0.457102C7.12313 0.567258 7.09974 0.685318 7.09986 0.804525L7.09343 7.09252L0.798995 7.09252C0.679823 7.09252 0.561818 7.11599 0.451717 7.1616C0.341617 7.2072 0.241577 7.27405 0.15731 7.35831C0.0730428 7.44258 0.0061979 7.54262 -0.0394072 7.65272C-0.0850123 7.76282 -0.108485 7.88083 -0.108485 8C-0.108485 8.11917 -0.0850123 8.23718 -0.0394072 8.34728C0.0061979 8.45738 0.0730428 8.55742 0.15731 8.64169C0.241577 8.72595 0.341617 8.7928 0.451717 8.8384C0.561818 8.88401 0.679823 8.90748 0.798995 8.90748L7.09343 8.90748L7.09343 15.2019C7.09343 15.3211 7.1169 15.4391 7.1625 15.5492C7.20811 15.6593 7.27495 15.7593 7.35922 15.8436C7.44349 15.9279 7.54353 15.9947 7.65363 16.0403C7.76373 16.0859 7.88173 16.1094 8.00091 16.1094C8.12008 16.1094 8.23808 16.0859 8.34818 16.0403C8.45828 15.9947 8.55832 15.9279 8.64259 15.8436C8.72686 15.7593 8.7937 15.6593 8.83931 15.5492C8.88491 15.4391 8.90839 15.3211 8.90839 15.2019L8.90839 8.90748L15.2028 8.90748C15.322 8.90748 15.44 8.88401 15.5501 8.8384C15.6602 8.7928 15.7602 8.72595 15.8445 8.64168C15.9288 8.55742 15.9956 8.45738 16.0412 8.34728C16.0868 8.23718 16.1103 8.11917 16.1103 8C16.1103 7.88083 16.0868 7.76282 16.0412 7.65272C15.9956 7.54262 15.9288 7.44258 15.8445 7.35832C15.7602 7.27405 15.6602 7.2072 15.5501 7.1616C15.44 7.11599 15.322 7.09252 15.2028 7.09252L8.90839 7.09252L8.90839 0.798089C8.90839 0.308951 8.49648 -0.102955 8.00734 -0.102955Z" fill="white"/>
</g>
<defs>
<clipPath id="clip0_99_24">
<rect width="16" height="16" fill="white"/>
</clipPath>
</defs>
</svg>
