<svg width="16" height="16" viewBox="0 0 16 16" fill="none" xmlns="http://www.w3.org/2000/svg">
<g clip-path="url(#clip0_58_12)">
<path d="M3.19716 13.2908L3.19715 13.2907L2.29335 3.9506L2.24031 3.40244H2.79102H12.8187H13.3694L13.3164 3.9506L12.4126 13.2907L12.4126 13.2908C12.3585 13.8489 12.0985 14.3669 11.6833 14.7438C11.268 15.1206 10.7274 15.3294 10.1666 15.3293L3.19716 13.2908ZM3.19716 13.2908C3.25124 13.8489 3.51125 14.3669 3.9265 14.7438M3.19716 13.2908L3.9265 14.7438M3.9265 14.7438C4.34172 15.1206 4.88239 15.3294 5.44312 15.3293M3.9265 14.7438L5.44312 15.3293M5.44312 15.3293C5.44316 15.3293 5.44319 15.3293 5.44323 15.3293M5.44312 15.3293H5.44323M5.44323 15.3293H10.1665H5.44323ZM5.7439 2.73171V3.23171H6.2439H9.36585H9.86585V2.73171C9.86585 2.1851 9.64872 1.66089 9.26221 1.27438C8.8757 0.887869 8.35148 0.670732 7.80488 0.670732C7.25827 0.670732 6.73406 0.887869 6.34755 1.27438C5.96104 1.66089 5.7439 2.1851 5.7439 2.73171ZM5.07317 3.23171H5.57317V2.73171C5.57317 2.43864 5.6309 2.14843 5.74305 1.87767C5.8552 1.60691 6.01959 1.36089 6.22682 1.15365C6.43406 0.946419 6.68008 0.782032 6.95084 0.669879C7.2216 0.557725 7.51181 0.5 7.80488 0.5C8.09795 0.5 8.38815 0.557725 8.65891 0.669879C8.92968 0.782032 9.1757 0.946419 9.38293 1.15365C9.59017 1.36089 9.75455 1.60691 9.86671 1.87767C9.97886 2.14843 10.0366 2.43864 10.0366 2.73171V3.23171H10.5366H15.0244C15.047 3.23171 15.0687 3.2407 15.0848 3.25671C15.1008 3.27272 15.1098 3.29443 15.1098 3.31707C15.1098 3.33971 15.1008 3.36143 15.0848 3.37744C15.0687 3.39344 15.047 3.40244 15.0244 3.40244H13.9941H13.5401L13.4965 3.85436L12.5833 13.3068C12.5833 13.3068 12.5833 13.3068 12.5833 13.3068C12.5252 13.9074 12.2455 14.4647 11.7987 14.8702C11.352 15.2757 10.7702 15.5002 10.1668 15.5H10.1666H5.44312H5.44307C4.83983 15.5001 4.25819 15.2755 3.81156 14.87C3.36493 14.4645 3.08531 13.9072 3.02724 13.3068C3.02724 13.3068 3.02724 13.3068 3.02724 13.3068L2.11329 3.85432L2.0696 3.40244H1.61561H0.585366C0.562725 3.40244 0.541012 3.39345 0.525003 3.37744C0.508994 3.36143 0.5 3.33971 0.5 3.31707C0.5 3.29443 0.508994 3.27272 0.525003 3.25671C0.541012 3.2407 0.562725 3.23171 0.585366 3.23171H5.07317ZM6.10914 6.37866C6.12515 6.39467 6.13415 6.41638 6.13415 6.43902V12.2927C6.13415 12.3153 6.12515 12.337 6.10914 12.353C6.09313 12.3691 6.07142 12.378 6.04878 12.378C6.02614 12.378 6.00443 12.3691 5.98842 12.353C5.97241 12.337 5.96341 12.3153 5.96341 12.2927V6.43902C5.96341 6.41638 5.97241 6.39467 5.98842 6.37866C6.00443 6.36265 6.02614 6.35366 6.04878 6.35366C6.07142 6.35366 6.09313 6.36265 6.10914 6.37866ZM9.56098 6.35366C9.58361 6.35366 9.60533 6.36265 9.62134 6.37866C9.63735 6.39467 9.64634 6.41638 9.64634 6.43902V12.2927C9.64634 12.3153 9.63735 12.337 9.62134 12.353C9.60533 12.3691 9.58362 12.378 9.56098 12.378C9.53833 12.378 9.51662 12.3691 9.50061 12.353C9.4846 12.337 9.47561 12.3153 9.47561 12.2927V6.43902C9.47561 6.41638 9.4846 6.39467 9.50061 6.37866C9.51662 6.36265 9.53834 6.35366 9.56098 6.35366Z" fill="white" stroke="white"/>
</g>
<defs>
<clipPath id="clip0_58_12">
<rect width="16" height="16" fill="white"/>
</clipPath>
</defs>
</svg>
