<svg width="340" height="277" viewBox="0 0 340 277" fill="none" xmlns="http://www.w3.org/2000/svg">
<path d="M71.1714 20.2851C47.6444 46.1778 78.5285 79.9437 62.2585 94.4336C46.0025 108.906 -21.0815 136.862 45.7646 193.997C112.611 251.132 126.116 289.25 174.458 253.825C228.142 256.577 210.671 251.517 249.343 249.051C288.683 273.598 327.75 223.078 314.076 178.244C300.401 133.41 291.451 133.892 307.726 105.478C324.015 77.0632 296.857 -17.3471 241.116 43.2598C185.375 103.867 179.66 67.7768 156.573 35.8186C144.066 18.5199 108.332 -20.6586 71.1714 20.2851Z" fill="url(#paint0_linear_189_4202)"/>
<path d="M275.961 263.405C275.961 264.727 238.886 276.547 193.148 276.547C147.409 276.547 110.334 264.727 110.334 263.405C110.334 262.084 147.409 260.982 193.148 260.982C238.886 260.982 275.961 262.084 275.961 263.405Z" fill="#E6EDFD"/>
<path d="M234.554 262.157C234.554 262.818 215.979 268.691 193.147 268.691C170.315 268.691 151.74 262.818 151.74 262.157C151.74 261.496 170.315 260.982 193.147 260.982C215.979 260.982 234.554 261.496 234.554 262.157Z" fill="#B9C3DA"/>
<path d="M336.221 276.547H4.1188C2.29753 276.547 0.836914 275.068 0.836914 273.265V272.796C0.836914 270.975 2.31557 269.514 4.1188 269.514H336.239C338.06 269.514 339.521 270.993 339.521 272.796V273.265C339.503 275.068 338.042 276.547 336.221 276.547Z" fill="#33404C"/>
<path d="M156.072 174.718L102.331 186.024C97.2653 187.052 92.3464 183.822 91.2452 178.829L67.4583 65.8418C66.4305 60.7761 69.6608 55.8572 74.6531 54.756L128.394 43.4499C133.46 42.422 138.378 45.6523 139.48 50.6447L163.267 163.632C164.368 168.698 161.137 173.69 156.072 174.718Z" fill="#1E699F"/>
<path d="M94.6956 174.938L72.2302 67.9709C71.6429 65.2545 73.4049 62.5381 76.1213 61.9508L130.156 50.5713C132.872 49.9839 135.588 51.7459 136.176 54.4623L158.641 161.503C159.228 164.22 157.466 166.936 154.75 167.523L100.716 178.903C97.9993 179.417 95.2829 177.728 94.6956 174.938Z" fill="#E3D9FA"/>
<path d="M94.7694 85.5909C94.5492 85.5175 94.4023 85.4441 94.2555 85.2238C94.1087 85.077 94.0353 84.8568 93.9618 84.5631L93.7416 83.6087C93.6682 83.315 93.6682 83.0948 93.7416 82.8745C93.815 82.6543 93.8884 82.434 94.1087 82.2872C94.2555 82.1404 94.4757 82.067 94.7694 81.9935C94.9897 81.9201 95.2099 81.9201 95.4302 81.9935C95.6504 82.067 95.7972 82.1404 95.9441 82.2872C96.0909 82.434 96.2377 82.6543 96.3112 82.8745L95.5036 83.0214C95.4302 82.9479 95.3567 82.8011 95.2833 82.7277C95.2099 82.6543 95.1365 82.5809 95.0631 82.5809C94.9897 82.5809 94.8428 82.5809 94.7694 82.5809C94.6226 82.5809 94.5492 82.6543 94.4757 82.7277C94.4023 82.8011 94.3289 82.8745 94.3289 83.0214C94.3289 83.1682 94.3289 83.2416 94.3289 83.3884L94.5492 84.3429C94.5492 84.4897 94.6226 84.6365 94.696 84.7099C94.7694 84.7834 94.8428 84.8568 94.9897 84.9302C95.0631 84.9302 95.2099 85.0036 95.3567 84.9302C95.4302 84.9302 95.577 84.8568 95.6504 84.7833C95.7238 84.7099 95.7972 84.6365 95.7972 84.5631C95.8707 84.4897 95.8707 84.3429 95.8707 84.196L96.5314 84.0492C96.5314 84.3428 96.5314 84.5631 96.458 84.7099C96.3846 84.9302 96.2377 85.077 96.0909 85.2238C95.9441 85.3707 95.7238 85.4441 95.5036 85.5175C95.2099 85.6643 94.9897 85.6643 94.7694 85.5909Z" fill="#5E4A8A"/>
<path d="M98.22 81.1858L98.6605 81.1124L100.79 84.4162L100.129 84.563L98.6605 82.2137L98.3668 84.9301L97.7061 85.0769L98.22 81.1858ZM97.9997 83.682L99.9085 83.2415L100.055 83.8288L98.1466 84.2693L97.9997 83.682Z" fill="#5E4A8A"/>
<path d="M102.478 83.9757C102.331 83.9757 102.111 83.9757 101.964 83.9023C101.817 83.9023 101.67 83.8288 101.523 83.7554L101.744 83.1681C101.89 83.2415 102.111 83.3149 102.258 83.3149C102.478 83.3149 102.625 83.3149 102.845 83.3149C103.065 83.2415 103.212 83.1681 103.359 83.0947C103.432 83.0213 103.506 82.8744 103.506 82.7276C103.506 82.6542 103.432 82.5808 103.359 82.5074C103.285 82.4339 103.212 82.4339 103.139 82.4339C103.065 82.4339 102.918 82.4339 102.771 82.4339H102.698C102.478 82.4339 102.258 82.4339 102.037 82.4339C101.89 82.4339 101.744 82.3605 101.597 82.2137C101.45 82.0668 101.377 81.92 101.303 81.6264C101.23 81.4061 101.23 81.1859 101.303 81.039C101.377 80.8188 101.523 80.6719 101.67 80.5985C101.817 80.4517 102.037 80.3783 102.331 80.3049C102.478 80.3049 102.625 80.2314 102.698 80.2314C102.845 80.2314 102.992 80.2314 103.139 80.3049C103.285 80.3049 103.432 80.3783 103.579 80.4517L103.432 81.039C103.285 80.9656 103.139 80.9656 102.992 80.8922C102.845 80.8922 102.698 80.8922 102.551 80.8922C102.331 80.9656 102.184 81.039 102.111 81.1124C102.037 81.1859 101.964 81.3327 102.037 81.4795C102.037 81.5529 102.111 81.6998 102.184 81.6998C102.258 81.7732 102.331 81.7732 102.478 81.7732C102.551 81.7732 102.698 81.7732 102.845 81.7732C103.065 81.7732 103.285 81.7732 103.432 81.7732C103.579 81.7732 103.726 81.8466 103.873 81.9934C104.02 82.1403 104.093 82.2871 104.166 82.5074C104.24 82.7276 104.24 82.9479 104.166 83.0947C104.093 83.3149 103.946 83.4618 103.799 83.5352C103.652 83.682 103.359 83.7554 103.065 83.8288C102.845 83.9023 102.698 83.9757 102.478 83.9757Z" fill="#5E4A8A"/>
<path d="M104.9 79.6442L105.561 79.4974L106.369 83.0948L105.708 83.2416L104.9 79.6442ZM105.561 81.1125L107.617 80.672L107.764 81.2594L105.708 81.6999L105.561 81.1125ZM106.883 79.2037L107.543 79.0569L108.351 82.6543L107.69 82.8011L106.883 79.2037Z" fill="#5E4A8A"/>
<path d="M109.013 78.763L109.673 78.6162L110.481 82.2136L109.82 82.3604L109.013 78.763ZM109.967 81.6263L111.068 81.406C111.215 81.3326 111.362 81.3326 111.435 81.1857C111.509 81.1123 111.509 80.9655 111.509 80.8187C111.509 80.7453 111.435 80.6718 111.362 80.5984C111.289 80.525 111.215 80.525 111.142 80.4516C111.068 80.4516 110.922 80.4516 110.848 80.4516L109.747 80.6718L109.6 80.0845L110.701 79.8643C110.848 79.8643 110.995 79.7908 110.995 79.644C111.068 79.5706 111.068 79.4238 111.068 79.2769C111.068 79.1301 110.995 79.0567 110.848 78.9833C110.775 78.9098 110.628 78.9098 110.481 78.9833L109.38 79.2035L109.233 78.6162L110.408 78.3225C110.628 78.2491 110.848 78.2491 110.995 78.3225C111.142 78.3959 111.289 78.4693 111.435 78.5428C111.582 78.6896 111.656 78.8364 111.656 79.0567C111.656 79.2035 111.656 79.3503 111.656 79.4238C111.656 79.5706 111.582 79.644 111.509 79.7174C111.435 79.7908 111.289 79.8643 111.142 79.9377C111.289 79.9377 111.435 79.9377 111.582 80.0111C111.729 80.0845 111.803 80.1579 111.876 80.2313C111.949 80.3048 112.023 80.4516 112.023 80.5984C112.096 80.8187 112.096 80.9655 112.023 81.1857C111.949 81.3326 111.876 81.4794 111.729 81.6263C111.582 81.7731 111.362 81.8465 111.142 81.8465L109.967 82.1402V81.6263Z" fill="#5E4A8A"/>
<path d="M114.004 77.662L114.445 77.5886L116.574 80.8924L115.913 81.0392L114.445 78.6899L114.151 81.4063L113.49 81.5531L114.004 77.662ZM113.784 80.1582L115.693 79.7177L115.84 80.305L113.931 80.7455L113.784 80.1582Z" fill="#5E4A8A"/>
<path d="M118.189 80.3048C117.969 80.2314 117.822 80.158 117.675 79.9377C117.529 79.7909 117.455 79.5706 117.382 79.277L117.162 78.3226C117.088 78.0289 117.088 77.8087 117.162 77.5884C117.235 77.3682 117.308 77.1479 117.529 77.0011C117.675 76.8542 117.896 76.7808 118.189 76.7074C118.41 76.634 118.63 76.634 118.85 76.7074C119.07 76.7808 119.217 76.8542 119.364 77.0011C119.511 77.1479 119.658 77.3682 119.731 77.5884L119.07 77.7352C118.997 77.6618 118.924 77.515 118.85 77.4416C118.777 77.3682 118.703 77.2947 118.63 77.2947C118.556 77.2947 118.41 77.2947 118.336 77.2947C118.189 77.2947 118.116 77.3682 118.043 77.4416C117.969 77.515 117.896 77.5884 117.896 77.7352C117.896 77.8821 117.896 77.9555 117.896 78.1023L118.116 79.0567C118.116 79.2036 118.189 79.3504 118.263 79.4238C118.336 79.4972 118.41 79.5706 118.556 79.6441C118.63 79.6441 118.777 79.7175 118.923 79.6441C118.997 79.6441 119.144 79.5706 119.217 79.4972C119.291 79.4238 119.364 79.3504 119.364 79.277C119.437 79.2036 119.437 79.0567 119.437 78.9099L120.098 78.7631C120.098 79.0567 120.098 79.277 120.025 79.4238C119.951 79.6441 119.804 79.7909 119.658 79.9377C119.511 80.0846 119.291 80.158 119.07 80.2314C118.63 80.3782 118.336 80.3782 118.189 80.3048Z" fill="#5E4A8A"/>
<path d="M120.686 76.12L121.346 75.9732L122.154 79.5706L121.493 79.7174L120.686 76.12ZM121.567 78.1757L122.521 75.6795L123.329 75.5327L121.787 78.9833L121.567 78.1757ZM122.08 77.6618L122.521 77.1479L124.283 79.0567L123.549 79.2035L122.08 77.6618Z" fill="#5E4A8A"/>
<path opacity="0.25" d="M105.487 138.304L138.671 131.109" stroke="#6736B6" stroke-width="3.3986" stroke-miterlimit="10" stroke-linecap="round" stroke-linejoin="round"/>
<path opacity="0.25" d="M113.343 142.929L134.487 138.304" stroke="#6736B6" stroke-width="3.3986" stroke-miterlimit="10" stroke-linecap="round" stroke-linejoin="round"/>
<path d="M133.533 152.767C134.047 156.511 131.331 160.035 127.587 160.476C123.842 160.989 120.318 158.273 119.878 154.529C119.364 150.785 122.08 147.261 125.825 146.82C129.569 146.306 133.019 148.949 133.533 152.767Z" fill="#1E699F"/>
<path d="M123.915 153.574L126.264 155.41L129.128 151.592" stroke="white" stroke-width="2.2658" stroke-miterlimit="10" stroke-linecap="round" stroke-linejoin="round"/>
<path opacity="0.45" d="M95.2833 55.0498C95.7699 55.0498 96.1643 54.6554 96.1643 54.1688C96.1643 53.6823 95.7699 53.2878 95.2833 53.2878C94.7968 53.2878 94.4023 53.6823 94.4023 54.1688C94.4023 54.6554 94.7968 55.0498 95.2833 55.0498Z" fill="black"/>
<path opacity="0.45" d="M98.4395 53.6549L110.627 50.8651" stroke="black" stroke-width="1.1329" stroke-miterlimit="10" stroke-linecap="round" stroke-linejoin="bevel"/>
<path d="M188.522 255.99C188.522 259.441 188.229 262.818 188.229 262.818H183.97L183.236 259.367C183.236 259.367 180.446 261.79 177.51 262.23C174.647 262.671 165.837 263.332 165.543 262.083C165.543 262.01 165.543 262.01 165.543 261.937C166.057 260.468 179.492 252.613 181.107 249.456L184.631 249.162C184.631 249.162 186.246 246.593 187.641 248.795C188.375 249.823 188.522 252.98 188.522 255.99Z" fill="#1E699F"/>
<path d="M209.152 262.23C206.215 261.79 203.426 259.367 203.426 259.367L202.691 262.818H198.433C198.433 262.818 198.213 259.514 198.14 256.063C198.14 252.98 198.286 249.823 198.947 248.795C200.342 246.593 201.957 249.162 201.957 249.162L205.628 248.281C207.096 251.144 218.182 258.78 220.605 261.276C220.899 261.57 221.046 261.79 221.046 261.863C221.559 263.405 212.162 262.671 209.152 262.23Z" fill="#1E699F"/>
<path d="M191.899 207.462C191.312 223.54 188.155 247.694 187.714 248.795C187.2 250.19 181.767 249.896 181.254 249.75C180.74 249.676 178.243 218.327 176.849 201.295C176.702 199.606 176.555 198.065 176.481 196.67L181.254 191.604C181.254 191.604 189.99 184.996 191.679 196.67C191.972 199.166 192.046 203.057 191.899 207.462Z" fill="#EDB9C0"/>
<path d="M191.605 196.67C191.972 199.166 192.046 203.057 191.899 207.462C191.752 207.168 191.605 206.874 191.458 206.581C188.375 200.854 182.208 200.34 176.849 201.295C176.702 199.606 176.555 198.065 176.481 196.67L181.254 191.604C181.254 191.604 189.917 184.996 191.605 196.67Z" fill="#D8939F"/>
<path d="M205.849 248.795C205.335 250.19 199.902 249.896 199.388 249.75C198.948 249.676 197.112 227.284 195.717 210.105C195.277 204.892 194.91 200.194 194.616 196.67L199.388 191.604C199.388 191.604 208.125 184.996 209.813 196.67C210.034 198.065 210.107 199.9 210.18 202.029C210.327 217.3 206.363 247.62 205.849 248.795Z" fill="#EDB9C0"/>
<path d="M210.107 202.029C209.813 201.882 209.446 201.735 209.153 201.589C201.591 197.991 197.626 204.599 195.717 210.105C195.277 204.892 194.91 200.194 194.616 196.67L199.388 191.604C199.388 191.604 208.125 184.996 209.813 196.67C210.034 198.065 210.107 199.9 210.107 202.029Z" fill="#D8939F"/>
<path d="M133.387 107.909C133.387 111.213 132.579 114.297 131.258 117.013C127.881 123.694 120.979 128.319 112.977 128.319C105.782 128.319 99.3951 124.575 95.7977 118.922C95.4306 118.408 95.137 117.894 94.8433 117.307C94.4028 116.426 94.0357 115.545 93.6686 114.59C93.1547 113.122 92.7876 111.58 92.6408 109.965C92.5674 109.304 92.5674 108.57 92.5674 107.909C92.5674 96.6032 101.744 87.4996 112.977 87.4996C118.043 87.4996 122.668 89.335 126.265 92.4185C127.44 93.4463 128.541 94.621 129.496 95.8691C130.083 96.6767 130.597 97.4842 131.037 98.3652C131.331 98.8791 131.625 99.4665 131.845 100.054C132.726 102.256 133.313 104.606 133.387 107.102C133.387 107.322 133.387 107.616 133.387 107.909Z" fill="white"/>
<path d="M112.977 121.418C120.438 121.418 126.486 115.37 126.486 107.909C126.486 100.449 120.438 94.4009 112.977 94.4009C105.517 94.4009 99.4688 100.449 99.4688 107.909C99.4688 115.37 105.517 121.418 112.977 121.418Z" fill="#1E699F"/>
<path d="M116.134 108.57C116.061 108.497 115.987 108.423 115.987 108.35C115.767 108.056 115.473 107.836 115.18 107.763C114.813 107.616 114.372 107.469 113.932 107.322C113.858 107.322 113.858 107.322 113.785 107.249H113.711H113.638H113.564H113.491C112.977 107.175 112.61 107.029 112.316 106.955C112.023 106.882 111.802 106.735 111.656 106.515C111.509 106.294 111.362 106.001 111.362 105.634C111.362 105.56 111.362 105.413 111.362 105.34C111.435 104.973 111.582 104.679 111.802 104.459C112.096 104.165 112.61 104.092 113.197 104.092C113.344 104.092 113.491 104.092 113.711 104.165C113.858 104.165 114.078 104.239 114.225 104.312C114.592 104.459 114.886 104.606 115.253 104.826L116.134 103.578C115.914 103.431 115.694 103.284 115.473 103.211C115.4 103.137 115.253 103.137 115.18 103.064C114.886 102.917 114.519 102.844 114.225 102.77C114.078 102.77 113.932 102.697 113.785 102.697C113.638 102.697 113.418 102.697 113.271 102.697C112.904 102.697 112.61 102.697 112.316 102.77C111.949 102.844 111.656 102.917 111.362 103.064C110.848 103.284 110.481 103.651 110.187 104.092C109.894 104.532 109.82 105.12 109.82 105.854C109.82 106.001 109.82 106.148 109.82 106.221C109.894 106.735 109.967 107.175 110.261 107.469C110.554 107.836 110.848 108.13 111.289 108.277C111.435 108.35 111.656 108.423 111.876 108.423C112.17 108.497 112.537 108.57 112.904 108.644H112.977H113.051C113.051 108.644 113.051 108.644 113.124 108.644C113.564 108.717 113.858 108.791 114.152 108.937C114.299 109.011 114.445 109.084 114.519 109.158C114.592 109.231 114.739 109.304 114.813 109.378C114.959 109.598 115.033 109.818 115.033 110.185C115.033 110.699 114.886 111.14 114.519 111.434C114.152 111.727 113.638 111.801 112.977 111.801C112.463 111.801 112.023 111.727 111.582 111.507C111.362 111.36 111.068 111.213 110.848 110.993C110.701 110.846 110.554 110.699 110.408 110.553L109.453 111.727C109.747 112.094 110.114 112.315 110.481 112.535C110.848 112.755 111.215 112.902 111.656 113.049C112.096 113.122 112.243 113.196 112.243 113.196C112.243 113.196 112.243 113.196 112.316 113.196H112.904C113.197 113.196 113.491 113.196 113.785 113.122C114.225 113.049 114.592 112.975 114.886 112.828C115.4 112.608 115.84 112.241 116.061 111.801C116.354 111.36 116.428 110.773 116.428 110.112C116.501 109.451 116.354 108.937 116.134 108.57ZM112.39 101.375V102.991H113.858V101.375H112.39ZM112.39 112.682V114.444H113.858V112.682H112.39Z" fill="white"/>
<path d="M181.769 100.347L178.758 109.598C178.758 109.598 177.437 111.36 175.455 113.856C173.326 116.572 170.609 120.243 168.113 123.474C163.414 129.714 160.258 131.77 154.678 128.76C149.098 125.75 135.516 114.517 135.516 114.517L134.856 114.443L132.433 114.076L133.387 109.451C133.387 109.451 132.873 107.763 132.213 107.249C131.552 106.735 130.157 105.12 130.23 104.312C130.23 104.239 130.23 104.239 130.304 104.165C130.524 103.651 131.552 104.679 132.726 105.046C133.975 105.413 137.131 109.451 138.012 109.965C138.893 110.479 159.303 119.656 159.303 119.656C159.303 119.656 159.597 119.142 160.184 118.188C162.754 113.929 170.462 101.522 175.455 95.6488C176.996 93.8134 178.318 92.6388 179.126 92.4919L181.769 100.347Z" fill="#EDB9C0"/>
<path d="M181.768 100.347L178.758 109.598C178.758 109.598 177.436 111.36 175.454 113.856C176.115 105.854 176.335 100.861 175.454 95.7222C176.996 93.8868 178.317 92.7121 179.125 92.5653L181.768 100.347Z" fill="#D8939F"/>
<path d="M217.889 104.826C217.815 104.752 217.008 103.798 215.686 102.55C212.236 99.0995 205.628 93.0793 201.076 92.5654C196.525 92.1249 187.421 93.1527 182.722 93.1527C180.96 93.1527 179.786 93.0059 179.786 92.5654C179.786 90.9502 184.191 86.9858 183.089 84.2694C181.988 81.4795 178.611 73.3303 178.097 68.4849C177.583 63.6394 180.006 57.0319 186.246 58.28C186.246 58.28 186.76 52.4067 195.35 52.994C204.013 53.5814 205.555 64.9609 208.124 68.2646C210.694 71.5683 206.362 78.5429 208.418 82.434C210.474 86.325 217.228 88.3073 216.641 93.6666C216.127 98.8792 217.815 104.532 217.889 104.826Z" fill="#3E3551"/>
<path d="M215.686 102.477C212.236 99.0261 205.628 93.0059 201.076 92.492C196.525 92.0515 187.421 93.0793 182.722 93.0793L182.429 92.492C185.219 90.4364 184.851 85.4441 184.851 85.4441L185.732 88.968C185.732 88.968 187.054 87.206 185.219 83.4618C183.383 79.7176 182.722 71.2013 182.722 71.2013L195.644 71.7886L199.094 74.2114L202.325 75.4594C202.325 75.4594 200.636 81.2593 201.59 84.4896C202.545 87.72 204.013 88.4541 204.013 88.4541C204.013 88.4541 203.059 85.077 203.279 83.0947C204.16 86.3251 213.337 87.8668 214.879 96.6767C215.246 98.8792 215.466 100.861 215.686 102.477Z" fill="#272137"/>
<path d="M252.174 85.2236C251.146 87.7198 250.706 88.7476 249.972 89.2615C249.311 89.7754 243.658 92.1247 243.658 92.1247C243.658 92.1247 233.453 117.453 230.737 122.96C228.02 128.466 222 130.375 217.595 123.62C215.246 119.95 212.089 115.324 209.739 111.947C207.757 109.084 206.362 107.102 206.362 107.102L208.418 91.3906C209.372 91.9779 210.474 93.1526 211.648 94.7677C215.98 100.568 221.339 111.507 223.248 115.471C223.689 116.426 223.909 116.939 223.909 116.939C223.909 116.939 238.959 92.7121 239.914 91.464C240.795 90.2159 242.263 87.4995 243.07 86.9122C243.878 86.2514 245.787 83.8287 246.154 84.1224C246.521 84.416 246.301 85.7375 245.86 86.5451C245.42 87.2059 244.392 88.6742 244.245 88.8944C244.539 88.821 248.65 87.4261 248.797 87.1324C248.944 86.8388 249.825 83.7553 250.045 83.6085C250.339 83.4616 250.339 86.3249 250.339 86.3249C250.339 86.3249 252.541 81.9199 252.835 81.8465C253.202 81.6262 253.202 82.7275 252.174 85.2236Z" fill="#EDB9C0"/>
<path d="M269.867 140.139L243.657 143.002L234.627 98.8059L260.763 95.9426L269.867 140.139Z" fill="#1E699F"/>
<path d="M234.628 98.8058L231.911 99.0994L226.111 144.911L236.243 142.415L243.658 143.002L234.628 98.8058Z" fill="#2C4C65"/>
<path d="M245.86 100.054C245.86 100.568 245.419 101.008 244.906 101.008C244.392 101.008 243.951 100.568 243.951 100.054C243.951 99.54 244.392 99.0995 244.906 99.0995C245.419 99.0995 245.86 99.54 245.86 100.054Z" fill="#E1E1E1"/>
<path d="M253.569 98.8057C253.569 99.3196 253.128 99.7601 252.615 99.7601C252.101 99.7601 251.66 99.3196 251.66 98.8057C251.66 98.2918 252.101 97.8513 252.615 97.8513C253.128 97.8513 253.569 98.2918 253.569 98.8057Z" fill="#E1E1E1"/>
<path d="M244.906 100.054C243.437 94.9148 244.025 87.8668 247.475 87.2061" stroke="#3E3551" stroke-width="1.1329" stroke-miterlimit="10" stroke-linecap="round"/>
<path d="M249.604 89.9958C251.587 92.8591 252.615 98.8058 252.615 98.8058" stroke="#3E3551" stroke-width="1.1329" stroke-miterlimit="10" stroke-linecap="round"/>
<path d="M209.813 111.947C207.83 109.084 206.436 107.102 206.436 107.102L208.491 91.3906C209.446 91.978 210.547 93.1526 211.722 94.7678C210.033 98.5854 209.372 106.221 209.813 111.947Z" fill="#D8939F"/>
<path d="M224.937 200.194C220.091 203.057 214.218 197.551 208.565 195.642C208.345 195.568 208.125 195.495 207.904 195.422C207.757 195.348 207.537 195.348 207.39 195.275C205.702 194.834 204.601 194.908 203.499 195.275C201.664 195.862 199.902 197.257 195.717 198.285C194.689 198.505 193.882 198.725 193.148 198.799C188.669 199.386 189.183 197.11 184.264 196.743C183.971 196.743 183.677 196.743 183.457 196.67C178.391 196.596 176.042 199.239 176.042 199.239C176.042 199.239 175.748 198.285 175.307 195.201C175.234 194.394 175.087 193.513 175.014 192.411C174.867 190.87 174.72 188.961 174.573 186.685C174.5 185.804 174.5 184.923 174.426 183.895C174.353 182.207 174.28 180.298 174.206 178.169C174.206 177.288 174.133 176.333 174.133 175.379C174.133 174.938 174.133 174.498 174.133 174.131C174.133 172.589 174.133 171.121 174.133 169.652C174.133 168.698 174.206 167.817 174.206 166.863C174.28 164.88 174.426 162.972 174.573 161.136C174.647 160.182 174.72 159.301 174.867 158.346C175.087 156.364 175.307 154.455 175.601 152.62C175.748 151.665 175.895 150.784 176.042 149.83C176.629 146.379 177.29 143.223 177.804 140.286C178.318 137.79 178.758 135.44 179.125 133.385C179.272 132.724 179.345 132.063 179.492 131.403C179.639 130.375 179.786 129.42 179.786 128.539C180.153 123.4 178.905 120.831 177.73 118.848C176.923 117.453 176.115 116.352 175.821 114.81C175.381 112.388 176.115 109.304 176.923 106.294C177.363 104.752 177.877 103.137 178.318 101.669C179.566 97.4108 177.363 92.5654 178.318 91.3907C179.199 90.3629 180.006 91.2439 180.153 91.3907C180.153 91.3907 183.677 90.6565 188.816 89.1882C189.77 88.8945 190.798 88.6009 191.826 88.3072C194.543 88.0136 197.406 88.1604 199.975 88.5275C204.38 89.1148 207.904 90.2895 207.904 90.2895C207.978 90.1426 208.125 89.9958 208.345 89.849C209.006 89.5553 209.96 89.7021 209.373 91.0236C206.069 97.0438 208.125 111.36 208.125 111.36C208.125 111.36 208.198 112.314 208.125 113.93C208.125 114.223 208.125 114.517 208.125 114.884C208.051 117.527 207.757 121.418 206.95 125.896C206.656 127.658 206.363 129.567 206.142 131.623C205.922 133.899 205.775 136.321 205.922 138.818C206.069 142.415 206.73 146.086 208.125 149.683C208.492 150.638 208.859 151.519 209.373 152.473C209.96 153.574 210.621 154.676 211.355 155.777C211.869 156.511 212.309 157.319 212.75 158.2C213.19 159.08 213.484 159.962 213.851 160.989C214.438 162.751 214.879 164.66 215.246 166.716C215.393 167.597 215.613 168.551 215.76 169.506C216.053 171.341 216.347 173.323 216.641 175.232C216.788 176.113 216.934 177.067 217.081 178.022C217.155 178.536 217.228 179.05 217.302 179.637C217.522 181.032 217.742 182.427 218.036 183.748C218.183 184.703 218.403 185.584 218.623 186.538C219.064 188.52 219.651 190.429 220.385 192.265C220.752 193.219 221.119 194.173 221.633 195.054C222.588 197.11 223.615 198.725 224.937 200.194Z" fill="#373435"/>
<path opacity="0.25" d="M209.519 152.84H175.601C175.747 151.886 175.894 151.005 176.041 150.05H208.271C208.638 151.005 209.078 151.886 209.519 152.84Z" fill="white"/>
<path opacity="0.25" d="M213.924 161.283H174.573C174.647 160.329 174.72 159.448 174.867 158.493H212.897C213.264 159.374 213.631 160.329 213.924 161.283Z" fill="white"/>
<path opacity="0.25" d="M215.833 169.799H174.133C174.133 168.845 174.206 167.964 174.206 167.009H215.393C215.54 167.964 215.686 168.845 215.833 169.799Z" fill="white"/>
<path opacity="0.25" d="M217.155 178.316H174.206C174.206 177.435 174.133 176.48 174.133 175.526H216.714C216.861 176.48 217.008 177.361 217.155 178.316Z" fill="white"/>
<path opacity="0.25" d="M218.697 186.832H174.574C174.5 185.951 174.5 185.07 174.427 184.042H218.109C218.33 184.996 218.477 185.877 218.697 186.832Z" fill="white"/>
<path opacity="0.25" d="M221.706 195.275H207.39C205.702 194.834 204.6 194.908 203.499 195.275H175.307C175.234 194.467 175.087 193.586 175.014 192.485H220.458C220.825 193.513 221.266 194.394 221.706 195.275Z" fill="white"/>
<path d="M217.375 179.857C213.851 175.159 213.704 167.45 209.74 160.402C204.527 151.151 201.37 146.893 201.958 136.542C202.472 126.117 207.611 123.4 208.345 115.177C208.271 117.82 207.978 121.712 207.17 126.19C206.877 127.952 206.583 129.861 206.363 131.916C206.142 134.192 205.996 136.615 206.142 139.111C206.436 144.764 207.831 150.711 211.502 156.07C215.173 161.43 215.907 170.754 217.375 179.857Z" fill="#1E699F"/>
<path d="M200.122 88.8945C199.608 91.5375 198.36 95.7222 195.203 96.4564C191.019 97.4842 188.743 94.7678 188.89 89.5552C189.844 89.2616 190.872 88.9679 191.9 88.6742C194.616 88.3072 197.553 88.454 200.122 88.8945Z" fill="#1E699F"/>
<path d="M198.434 89.1147C197.846 92.1248 195.644 95.0615 192.854 94.1805C191.165 93.5931 190.798 92.2716 190.725 91.2438C190.725 90.5831 190.798 90.0692 190.798 90.0692C190.798 90.0692 190.578 88.1603 189.991 85.9578C189.697 84.93 189.403 83.9022 188.963 82.9478L197.626 78.6162C196.525 80.4516 196.965 83.0946 197.626 86.0313C197.773 86.6186 197.92 87.2059 198.067 87.7932L198.434 89.1147Z" fill="#D8939F"/>
<path d="M197.699 86.1047C195.717 86.325 192.34 86.5452 190.064 86.0313C189.77 85.0035 189.477 83.9757 189.036 83.0213L197.699 78.6897C196.671 80.5251 197.039 83.2415 197.699 86.1047Z" fill="#C27183"/>
<path d="M201.224 77.3682C199.462 78.5428 199.021 76.7809 199.021 76.7809C199.021 76.7809 195.938 85.444 190.578 84.7098C185.219 83.9757 183.677 77.2948 183.677 75.2391C183.677 73.3303 183.09 72.8898 182.723 71.5683C182.723 71.4949 182.649 71.3481 182.649 71.2746C182.649 71.2746 185.806 67.9709 186.981 64.5938C188.596 66.7228 195.13 70.3936 198.654 70.6873C198.654 70.7607 198.581 70.9076 198.581 71.0544C198.434 72.1556 198.728 74.2847 199.021 74.2113C199.315 74.2113 199.755 72.0088 201.003 71.7151C202.325 71.4949 202.986 76.1935 201.224 77.3682Z" fill="#EDB9C0"/>
<path d="M209.593 91.3906C206.289 97.4107 208.345 111.727 208.345 111.727C208.345 111.727 208.418 112.681 208.345 114.296C204.454 111.066 205.628 98.6588 208.124 90.6564L208.565 90.216C209.152 89.9223 210.107 90.0691 209.593 91.3906Z" fill="#1E699F"/>
<path d="M178.464 101.963C179.712 97.7046 177.51 92.8591 178.464 91.6845C179.345 90.6566 180.153 91.5376 180.3 91.6845C180.593 95.9426 181.254 96.8236 177.069 106.515C177.51 105.046 178.024 103.431 178.464 101.963Z" fill="#1E699F"/>
<path d="M204.822 138.01C203.278 139.185 198.155 140.066 194.927 140.506C193.383 140.726 192.26 140.873 192.26 140.873C192.26 140.873 185.242 141.828 179.557 140.139C179.066 139.992 178.504 139.845 178.013 139.625C177.171 137.056 178.996 134.486 178.996 134.486C178.996 134.486 181.101 135.44 183.487 136.321C184.68 136.689 185.943 137.056 187.137 137.276C190.295 137.202 193.874 136.542 196.962 135.808C201.453 134.706 204.962 133.458 204.962 133.458C204.962 133.458 206.998 135.587 204.822 138.01Z" fill="#1E699F"/>
<path d="M198.433 89.1148C197.846 92.1248 195.644 95.0615 192.854 94.1805C191.165 93.5932 190.798 92.2717 190.725 91.2438C194.249 95.3552 196.892 90.9502 198.066 87.8667L198.433 89.1148Z" fill="#C27183"/>
<path d="M223.983 116.866C222.735 118.848 222.294 121.418 222.294 121.418C222.294 121.418 221.78 119.876 223.322 115.398C223.689 116.352 223.983 116.866 223.983 116.866Z" fill="#D8939F"/>
<path d="M162.753 122.519C162.753 122.519 161.358 120.831 159.376 119.729C159.376 119.729 159.67 119.215 160.257 118.261C162.459 120.39 162.753 122.519 162.753 122.519Z" fill="#D8939F"/>
<path d="M188.522 255.99C188.522 259.44 188.229 262.818 188.229 262.818H183.97L183.236 259.367C183.236 259.367 180.446 261.79 177.51 262.23C174.647 262.671 165.837 263.331 165.543 262.083C171.71 262.744 177.803 261.57 181.401 258.633C183.677 256.797 186.467 256.063 188.522 255.99Z" fill="#1F435C"/>
<path d="M209.152 262.23C206.215 261.79 203.426 259.367 203.426 259.367L202.691 262.818H198.433C198.433 262.818 198.213 259.514 198.14 256.063C203.279 256.577 204.527 259.734 211.355 260.909C215.613 261.643 218.77 261.496 220.605 261.276C220.899 261.57 221.046 261.79 221.046 261.863C221.559 263.405 212.162 262.671 209.152 262.23Z" fill="#1F435C"/>
<path opacity="0.45" d="M200.636 120.904C201.003 122.593 188.596 132.137 179.566 131.623C179.713 130.595 179.859 129.641 179.859 128.76C180.226 123.621 178.978 121.051 177.804 119.069C186.32 122.372 200.196 119.216 200.636 120.904Z" fill="#1E699F"/>
<path d="M198.654 70.6873C198.654 70.7607 198.581 70.9076 198.581 71.0544C194.763 71.7151 187.275 68.338 187.275 68.338C187.275 68.338 184.705 70.6873 182.723 71.5683C182.723 71.4949 182.649 71.3481 182.649 71.2746C182.649 71.2746 185.806 67.9709 186.981 64.5938C188.596 66.7228 195.204 70.3936 198.654 70.6873Z" fill="#D8939F"/>
<path d="M201.076 73.4037C200.269 73.6239 199.608 75.753 200.489 76.5606C200.195 75.3859 200.489 74.2847 201.076 73.4037Z" fill="#C27183"/>
<path d="M200.269 75.8265C200.489 74.6518 200.856 74.2114 201.296 74.3582C201.737 74.5784 201.37 75.3126 201.15 75.6797C201.296 75.3126 201.296 74.7987 201.003 74.8721C200.709 74.9455 200.415 76.1202 200.489 76.5607" fill="#C27183"/>
<path d="M190.504 80.8923C192.266 80.8189 193.441 79.424 193.441 79.424" stroke="#D85176" stroke-width="0.5664" stroke-miterlimit="10" stroke-linecap="round"/>
<path d="M193.368 73.991C193.368 74.4315 193.075 74.7986 192.708 74.7986C192.341 74.7986 192.047 74.4315 192.047 73.991C192.047 73.5505 192.341 73.1835 192.708 73.1835C193.075 73.1835 193.368 73.5505 193.368 73.991Z" fill="#3E3551"/>
<path d="M186.32 75.1658C186.685 75.1658 186.981 74.8042 186.981 74.3582C186.981 73.9122 186.685 73.5507 186.32 73.5507C185.955 73.5507 185.659 73.9122 185.659 74.3582C185.659 74.8042 185.955 75.1658 186.32 75.1658Z" fill="#3E3551"/>
<path d="M191.459 72.3759C191.459 72.3759 192.193 71.4215 194.102 72.0088" stroke="#3E3551" stroke-width="0.5664" stroke-miterlimit="10" stroke-linecap="round"/>
<path d="M184.852 73.1835C184.852 73.1835 185.953 71.862 187.495 72.8164" stroke="#3E3551" stroke-width="0.5664" stroke-miterlimit="10" stroke-linecap="round"/>
<path d="M188.816 72.4493C189.183 74.7252 188.155 77.0011 188.228 77.6619C188.228 78.3226 190.211 78.1024 190.504 78.1024" stroke="#C27183" stroke-width="0.5664" stroke-miterlimit="10" stroke-linecap="round"/>
<path d="M134.928 114.517L132.505 114.15L133.459 109.525C133.459 109.525 132.946 107.836 132.285 107.322C131.624 106.808 130.229 105.193 130.303 104.385C130.303 104.312 130.303 104.312 130.376 104.239C130.817 105.56 132.652 106.808 133.459 108.056C134.267 109.304 134.561 111.286 135.221 112.241C135.589 112.828 135.442 113.783 134.928 114.517Z" fill="#D8939F"/>
<path d="M137.572 111.507C137.425 112.681 136.177 114.443 136.397 114.517C136.544 114.59 138.012 112.314 137.572 111.507Z" fill="#D8939F"/>
<path d="M315.752 163.779L288.735 186.244C284.257 189.915 277.649 189.328 273.978 184.85L265.095 174.057C261.424 169.579 262.012 162.972 266.49 159.301L293.507 136.835C295.122 135.514 297.545 135.734 298.867 137.349L316.34 158.346C317.661 160.035 317.367 162.458 315.752 163.779Z" fill="#C4B0E9"/>
<path d="M297.912 146.526C298.793 148.655 299.16 150.858 298.94 152.987C298.573 158.199 295.343 163.045 290.204 165.174C285.505 167.083 280.439 166.422 276.548 163.706C276.181 163.485 275.814 163.192 275.52 162.898C275.006 162.458 274.492 161.944 274.052 161.43C273.318 160.622 272.657 159.741 272.143 158.713C271.923 158.273 271.703 157.832 271.482 157.392C268.472 150.124 271.923 141.754 279.191 138.744C282.495 137.349 285.945 137.349 289.102 138.377C290.13 138.744 291.158 139.185 292.112 139.772C292.7 140.139 293.287 140.506 293.801 140.947C294.168 141.24 294.462 141.534 294.755 141.828C295.93 143.002 296.958 144.397 297.692 145.939C297.765 146.159 297.839 146.379 297.912 146.526Z" fill="#2C4C65"/>
<path d="M293.434 148.435C295.417 153.281 293.141 158.787 288.295 160.842C283.45 162.898 277.944 160.549 275.888 155.703C273.906 150.858 276.182 145.352 281.027 143.296C285.872 141.314 291.452 143.59 293.434 148.435Z" fill="#1E699F"/>
<path d="M286.9 151.665C286.827 151.592 286.753 151.592 286.753 151.519C286.533 151.372 286.313 151.372 286.093 151.298C285.799 151.298 285.505 151.298 285.138 151.372C285.065 151.372 285.065 151.372 284.991 151.372C284.991 151.372 284.991 151.372 284.918 151.372C284.918 151.372 284.918 151.372 284.845 151.372C284.845 151.372 284.845 151.372 284.771 151.372C284.771 151.372 284.771 151.372 284.698 151.372C284.331 151.445 284.11 151.445 283.89 151.445C283.67 151.445 283.523 151.445 283.303 151.372C283.156 151.298 283.009 151.152 282.862 150.931C282.862 150.858 282.789 150.784 282.789 150.711C282.716 150.417 282.716 150.197 282.862 150.05C283.009 149.83 283.303 149.61 283.67 149.39C283.743 149.316 283.89 149.316 283.964 149.316C284.11 149.316 284.184 149.243 284.331 149.243C284.551 149.243 284.845 149.243 285.138 149.316L285.359 148.288C285.212 148.288 284.991 148.215 284.845 148.215C284.771 148.215 284.698 148.215 284.624 148.215C284.404 148.215 284.11 148.215 283.89 148.288C283.743 148.288 283.67 148.362 283.597 148.362C283.45 148.362 283.376 148.435 283.229 148.509C283.009 148.582 282.789 148.729 282.642 148.802C282.422 148.949 282.275 149.096 282.128 149.243C281.835 149.536 281.688 149.83 281.688 150.197C281.614 150.564 281.688 151.005 281.908 151.445C281.908 151.519 281.981 151.592 282.055 151.665C282.202 152.033 282.422 152.253 282.642 152.4C282.936 152.546 283.229 152.62 283.523 152.62C283.67 152.62 283.817 152.62 283.964 152.546C284.184 152.546 284.404 152.473 284.698 152.4C284.698 152.4 284.698 152.4 284.771 152.4H284.845C285.138 152.326 285.358 152.326 285.579 152.326C285.652 152.326 285.799 152.326 285.872 152.326C285.946 152.326 286.019 152.4 286.093 152.4C286.239 152.473 286.386 152.62 286.46 152.84C286.607 153.207 286.607 153.501 286.46 153.795C286.313 154.088 286.019 154.308 285.579 154.455C285.285 154.602 284.918 154.676 284.624 154.602C284.404 154.602 284.257 154.529 284.037 154.455C283.89 154.382 283.743 154.382 283.597 154.308L283.303 155.336C283.596 155.483 283.89 155.557 284.184 155.63C284.478 155.703 284.771 155.703 285.065 155.63C285.359 155.557 285.505 155.557 285.505 155.557C285.505 155.557 285.505 155.557 285.579 155.557L285.946 155.41C286.166 155.336 286.313 155.263 286.46 155.116C286.68 154.969 286.9 154.822 287.12 154.676C287.414 154.382 287.561 154.088 287.634 153.721C287.708 153.354 287.634 152.987 287.414 152.546C287.414 152.106 287.194 151.812 286.9 151.665ZM282.569 147.995L283.009 149.022L283.964 148.655L283.523 147.628L282.569 147.995ZM285.579 155.336L286.019 156.438L286.974 156.07L286.533 154.969L285.579 155.336Z" fill="white"/>
<path d="M315.239 177.655L283.083 191.677C277.797 194.026 271.63 191.604 269.28 186.244L263.701 173.397C261.351 168.111 263.774 161.944 269.133 159.594L301.29 145.572C303.199 144.764 305.475 145.645 306.356 147.554L317.295 172.589C318.029 174.571 317.148 176.847 315.239 177.655Z" fill="#373435"/>
<path d="M312.816 162.531L304.153 166.422C302.537 167.156 300.629 166.422 299.968 164.807C299.234 163.192 299.968 161.283 301.583 160.622L310.246 156.731C311.861 155.997 313.77 156.731 314.431 158.346C315.165 159.888 314.431 161.797 312.816 162.531Z" fill="#C4B0E9"/>
<path d="M304.005 163.412C304.005 163.999 303.491 164.513 302.904 164.513C302.317 164.513 301.803 163.999 301.803 163.412C301.803 162.825 302.317 162.311 302.904 162.311C303.491 162.311 304.005 162.825 304.005 163.412Z" fill="#A18ED8"/>
<path d="M166.864 9.67829C167.892 11.5871 168.553 13.6428 168.773 15.625C169.287 20.4705 167.451 24.9489 163.634 27.0045C160.183 28.9134 155.925 28.326 152.401 25.9033C152.107 25.683 151.74 25.4628 151.447 25.1691C150.933 24.802 150.492 24.3615 150.052 23.8476C149.318 23.1135 148.657 22.3059 148.07 21.4249C147.776 21.0578 147.556 20.6173 147.335 20.2502C143.738 13.6428 145.206 5.86065 150.566 2.924C152.988 1.60251 155.778 1.45567 158.495 2.33667C159.376 2.63033 160.257 2.99741 161.138 3.51133C161.652 3.80499 162.165 4.17207 162.679 4.53916C162.973 4.7594 163.267 5.05307 163.634 5.34673C164.735 6.37456 165.763 7.62264 166.644 9.09097C166.644 9.38463 166.717 9.53146 166.864 9.67829Z" fill="#2C4C65"/>
<path d="M168.185 8.94428C169.213 10.8531 169.874 12.9088 170.094 14.891C170.608 19.7365 168.773 24.2149 164.955 26.2705C161.505 28.1793 157.246 27.592 153.722 25.1693C153.429 24.949 153.062 24.7288 152.768 24.4351C152.254 24.068 151.814 23.6275 151.373 23.1136C150.639 22.3795 149.978 21.5719 149.391 20.6909C149.097 20.3238 148.877 19.8833 148.657 19.5162C145.059 12.9088 146.528 5.12664 151.887 2.18999C154.31 0.868498 157.1 0.721663 159.816 1.60266C160.697 1.89632 161.578 2.2634 162.459 2.77732C162.973 3.07098 163.487 3.43807 164.001 3.80515C164.294 4.0254 164.588 4.31906 164.955 4.61272C166.056 5.64055 167.084 6.88863 167.965 8.35696C167.965 8.65062 168.112 8.79745 168.185 8.94428Z" fill="#1E699F"/>
<path d="M162.771 22.286C166.369 20.3297 167.338 15.1632 164.937 10.7463C162.535 6.32942 157.671 4.33468 154.074 6.29097C150.476 8.24725 149.507 13.4137 151.908 17.8307C154.31 22.2476 159.174 24.2423 162.771 22.286Z" fill="white"/>
<path d="M160.11 13.8631C160.037 13.7897 159.963 13.7897 159.963 13.7897C159.743 13.7163 159.596 13.6429 159.376 13.6429C159.156 13.6429 158.935 13.6429 158.642 13.7163H158.568C158.568 13.7163 158.568 13.7163 158.495 13.7163C158.495 13.7163 158.495 13.7163 158.421 13.7163C158.421 13.7163 158.421 13.7163 158.348 13.7163C158.054 13.7897 157.908 13.7897 157.687 13.8631C157.54 13.8631 157.394 13.8631 157.247 13.7897C157.1 13.7163 156.953 13.5695 156.88 13.3492C156.88 13.2758 156.806 13.2024 156.806 13.2024C156.733 12.9821 156.659 12.7619 156.733 12.5417C156.806 12.3214 156.953 12.1012 157.32 11.9543C157.394 11.8809 157.467 11.8809 157.54 11.8809C157.614 11.8809 157.761 11.8075 157.834 11.8075C158.054 11.8075 158.275 11.8075 158.495 11.8809V10.9265C158.348 10.9265 158.201 10.8531 158.054 10.8531C157.981 10.8531 157.908 10.8531 157.834 10.8531C157.614 10.8531 157.467 10.8531 157.247 10.9265C157.173 10.9265 157.1 10.9999 157.027 10.9999C156.953 10.9999 156.88 11.0733 156.733 11.1467C156.586 11.2202 156.439 11.367 156.292 11.4404C156.146 11.5872 155.999 11.7341 155.925 11.8809C155.778 12.1746 155.705 12.4682 155.705 12.7619C155.705 13.129 155.852 13.4961 156.072 13.8631C156.146 13.9366 156.146 14.01 156.219 14.0834C156.439 14.3771 156.586 14.5973 156.806 14.7441C157.1 14.891 157.32 14.9644 157.54 14.9644C157.614 14.9644 157.761 14.9644 157.834 14.891C157.981 14.891 158.201 14.8176 158.421 14.7441C158.421 14.7441 158.421 14.7441 158.495 14.7441C158.495 14.7441 158.495 14.7441 158.568 14.7441C158.789 14.6707 159.009 14.6707 159.156 14.6707C159.229 14.6707 159.302 14.6707 159.376 14.6707C159.449 14.6707 159.523 14.7441 159.596 14.7441C159.743 14.8176 159.89 14.9644 159.963 15.1846C160.11 15.4783 160.183 15.772 160.11 16.0656C160.037 16.2859 159.816 16.5061 159.523 16.7264C159.302 16.8732 159.009 16.9466 158.789 16.8732C158.642 16.8732 158.495 16.7998 158.275 16.7998C158.128 16.7264 158.054 16.7264 157.908 16.653L157.834 17.6074C158.128 17.7542 158.348 17.8276 158.568 17.8276C158.789 17.901 159.082 17.8276 159.302 17.8276C159.523 17.7542 159.67 17.7542 159.67 17.7542C159.67 17.7542 159.67 17.7542 159.743 17.7542L160.037 17.6074C160.183 17.534 160.33 17.4605 160.404 17.3137C160.551 17.1669 160.771 17.02 160.844 16.8732C160.991 16.5795 161.138 16.2859 161.064 15.9922C161.064 15.6251 160.918 15.258 160.697 14.891C160.624 14.3036 160.404 14.01 160.11 13.8631ZM155.999 10.6328L156.513 11.5872L157.247 11.2202L156.733 10.2657L155.999 10.6328ZM159.596 17.2403L160.183 18.2681L160.918 17.901L160.33 16.8732L159.596 17.2403Z" fill="#1E699F"/>
<path opacity="0.25" d="M162.46 2.92412L160.551 6.4481L158.128 10.8531L157.614 11.8809L156.88 13.2024L156.366 14.0834L153.283 19.8099L151.374 23.3338C150.64 22.5997 149.979 21.7921 149.392 20.9111L151.521 17.02L157.688 5.71393L159.817 1.82288C160.698 1.96971 161.579 2.41021 162.46 2.92412Z" fill="white"/>
<path opacity="0.25" d="M164.881 4.75943L162.972 8.28341L159.962 13.7896L159.522 14.6706L158.421 16.7263L157.98 17.5339L155.631 21.792L153.722 25.316C153.428 25.0957 153.061 24.8755 152.768 24.5818L154.676 21.1313L158.054 14.8909L158.714 13.7162L162.165 7.47583L164.074 4.02527C164.294 4.1721 164.588 4.46577 164.881 4.75943Z" fill="white"/>
<path d="M297.032 115.251C297.913 116.939 298.5 118.628 298.647 120.317C299.087 124.428 297.545 128.319 294.242 130.081C291.305 131.696 287.634 131.182 284.624 129.2C284.331 128.98 284.037 128.833 283.817 128.613C283.376 128.246 283.009 127.878 282.569 127.511C281.981 126.851 281.394 126.19 280.88 125.456C280.66 125.089 280.439 124.795 280.293 124.428C277.209 118.775 278.457 112.094 283.082 109.598C285.138 108.497 287.561 108.35 289.837 109.084C290.571 109.304 291.378 109.671 292.113 110.112C292.553 110.405 292.994 110.699 293.434 110.993C293.728 111.213 293.948 111.433 294.242 111.653C295.196 112.534 296.077 113.636 296.811 114.884C296.885 114.957 296.958 115.104 297.032 115.251Z" fill="#2C4C65"/>
<path d="M298.206 114.59C299.087 116.279 299.675 117.967 299.822 119.656C300.262 123.767 298.72 127.658 295.417 129.42C292.48 131.035 288.809 130.522 285.799 128.539C285.505 128.319 285.212 128.172 284.991 127.952C284.551 127.585 284.184 127.218 283.743 126.851C283.156 126.19 282.569 125.529 282.055 124.795C281.835 124.428 281.614 124.134 281.467 123.767C278.384 118.114 279.632 111.433 284.257 108.937C286.313 107.836 288.736 107.689 291.012 108.423C291.746 108.644 292.553 109.011 293.287 109.451C293.728 109.745 294.168 110.038 294.609 110.332C294.903 110.552 295.123 110.773 295.417 110.993C296.371 111.874 297.252 112.975 297.986 114.223C297.986 114.297 298.06 114.443 298.206 114.59Z" fill="#1E699F"/>
<path d="M295.343 116.132C297.398 119.876 296.591 124.281 293.507 125.97C290.424 127.658 286.312 125.896 284.257 122.152C282.201 118.408 283.009 114.003 286.092 112.314C289.176 110.699 293.287 112.388 295.343 116.132Z" fill="white"/>
<path d="M291.306 118.775C291.232 118.775 291.232 118.701 291.159 118.701C291.012 118.628 290.865 118.555 290.645 118.555C290.425 118.555 290.278 118.555 289.984 118.628H289.911C289.691 118.701 289.47 118.701 289.324 118.701C289.177 118.701 289.03 118.701 288.957 118.628C288.81 118.555 288.736 118.408 288.589 118.261C288.589 118.188 288.516 118.188 288.516 118.114C288.443 117.894 288.443 117.747 288.443 117.6C288.516 117.38 288.663 117.233 288.957 117.086C289.03 117.086 289.103 117.013 289.177 117.013C289.25 117.013 289.324 116.939 289.397 116.939C289.544 116.939 289.764 116.939 289.984 117.013V116.205C289.838 116.205 289.691 116.132 289.617 116.132C289.544 116.132 289.544 116.132 289.47 116.132C289.324 116.132 289.103 116.132 288.957 116.205C288.883 116.205 288.81 116.279 288.736 116.279C288.663 116.279 288.589 116.352 288.516 116.352C288.369 116.426 288.222 116.499 288.149 116.572C288.002 116.646 287.929 116.793 287.855 116.939C287.708 117.16 287.635 117.453 287.708 117.747C287.708 118.041 287.855 118.334 288.002 118.701C288.002 118.775 288.076 118.848 288.149 118.922C288.296 119.215 288.516 119.362 288.663 119.509C288.883 119.656 289.103 119.729 289.324 119.656C289.397 119.656 289.47 119.656 289.617 119.656C289.764 119.656 289.911 119.582 290.058 119.582C290.278 119.509 290.425 119.509 290.572 119.509C290.645 119.509 290.719 119.509 290.792 119.509C290.865 119.509 290.939 119.509 290.939 119.582C291.086 119.656 291.159 119.729 291.232 119.95C291.379 120.243 291.453 120.463 291.379 120.684C291.306 120.904 291.159 121.051 290.865 121.198C290.645 121.344 290.425 121.344 290.205 121.344C290.058 121.344 289.911 121.344 289.764 121.271C289.691 121.271 289.544 121.198 289.47 121.124L289.397 121.932C289.617 122.005 289.838 122.079 290.058 122.152C290.278 122.152 290.498 122.152 290.645 122.152C290.865 122.079 290.939 122.079 290.939 122.079C290.939 122.079 290.939 122.079 291.012 122.079L291.232 121.932C291.379 121.858 291.453 121.785 291.6 121.712C291.746 121.565 291.893 121.491 291.967 121.344C292.113 121.124 292.187 120.831 292.187 120.537C292.187 120.243 292.04 119.95 291.893 119.582C291.673 119.142 291.526 118.922 291.306 118.775ZM287.782 115.985L288.222 116.793L288.81 116.499L288.369 115.691L287.782 115.985ZM290.865 121.712L291.306 122.593L291.893 122.299L291.453 121.418L290.865 121.712Z" fill="#1E699F"/>
<path opacity="0.25" d="M293.287 109.378L291.672 112.388L289.616 116.132L289.176 117.013L288.515 118.188L288.075 118.922L285.432 123.767L283.816 126.777C283.229 126.117 282.642 125.456 282.128 124.722L283.963 121.418L289.249 111.727L291.085 108.423C291.745 108.643 292.553 109.011 293.287 109.378Z" fill="white"/>
<path opacity="0.25" d="M295.343 110.993L293.728 114.003L291.158 118.702L290.791 119.436L289.837 121.198L289.469 121.858L287.487 125.529L285.872 128.539C285.578 128.319 285.285 128.172 285.064 127.952L286.68 125.015L289.616 119.729L290.13 118.702L293.067 113.342L294.682 110.406C294.829 110.552 295.122 110.773 295.343 110.993Z" fill="white"/>
<path d="M118.557 40.2929C130.744 13.9365 196.745 -18.2198 252.615 15.9187C308.411 50.0573 294.168 102.183 294.168 102.183" stroke="#1E699F" stroke-width="1.1329" stroke-miterlimit="10" stroke-linecap="round" stroke-linejoin="round" stroke-dasharray="1.43 1.43"/>
<defs>
<linearGradient id="paint0_linear_189_4202" x1="16.8256" y1="129.792" x2="317.261" y2="132.292" gradientUnits="userSpaceOnUse">
<stop stop-color="#DAE3FE"/>
<stop offset="1" stop-color="#E9EFFD"/>
</linearGradient>
</defs>
</svg>
